<?xml version="1.0" encoding="utf-8"?>
<!-- Generator: Adobe Illustrator 19.0.0, SVG Export Plug-In . SVG Version: 6.00 Build 0)  -->
<svg version="1.1" id="Layer_1" xmlns="http://www.w3.org/2000/svg" xmlns:xlink="http://www.w3.org/1999/xlink" x="0px" y="0px"
	 viewBox="0 0 110 35.4" style="enable-background:new 0 0 110 35.4;" xml:space="preserve">
<style type="text/css">
	.st0{fill:#FFFFFF;}
	.st1{fill:#E3AC2F;}
</style>
<g id="XMLID_25_">
	<path id="XMLID_43_" class="st0" d="M14.7,7.3v21.4c0,4-2.6,6.7-7.1,6.7c-4.4,0-6.9-2.6-7-6.6h4.5c0.2,1.5,1,2.4,2.5,2.4
		c1.5,0,2.4-0.9,2.4-2.4v-2.8c-1,0.7-2.1,1-3.5,1C2.8,27,0,23.9,0,19.4v-4.7C0,10,2.8,6.8,6.6,6.8c1.8,0,3.4,0.7,4.6,1.9l0.3-1.4
		H14.7z M10,19.4v-4.8c0-2.2-1-3.3-2.7-3.3c-1.7,0-2.7,1.1-2.7,3.3v4.7c0,2.2,0.9,3.3,2.7,3.3C9.1,22.6,10,21.5,10,19.4z"/>
	<path id="XMLID_40_" class="st0" d="M33.3,21.4c-0.4,4.4-3.1,7-7.7,7c-4.5,0-7.2-3-7.2-7.9v-5.8c0-4.9,2.7-7.8,7.2-7.8
		c4.6,0,7.3,2.9,7.3,7.8v4.6H23v1.2c0,2.4,1,3.5,2.7,3.5c1.9,0,2.6-0.8,3-2.6H33.3z M23,14.6V16h5.4v-1.4c0-2.4-1-3.5-2.8-3.5
		C24,11.1,23,12.2,23,14.6z"/>
	<path id="XMLID_37_" class="st0" d="M36.1,20.4v-5.6c0-5.1,2.8-8,7.4-8c4.7,0,7.5,2.9,7.5,8v5.6c0,5.1-2.8,8-7.5,8
		C38.9,28.4,36.1,25.5,36.1,20.4z M46.4,20.4v-5.6c0-2.5-1-3.5-2.8-3.5c-1.7,0-2.8,1-2.8,3.5v5.6c0,2.4,1,3.5,2.8,3.5
		C45.4,23.9,46.4,22.9,46.4,20.4z"/>
	<path id="XMLID_35_" class="st1" d="M54.1,26c0-1.4,1-2.3,2.4-2.3s2.4,0.9,2.4,2.3c0,1.4-1,2.4-2.4,2.4S54.1,27.4,54.1,26z"/>
	<path id="XMLID_33_" class="st0" d="M71,25.9v2.2h-1.2c-3.7,0-5.8-2.3-5.8-6.3V9.6h-3.1V7.5H64V2.8h2.3v4.7h4.2v2.1h-4.2v12.2
		c0,2.7,1.1,4.1,3.5,4.1H71z"/>
	<path id="XMLID_30_" class="st0" d="M73.6,1.9c0-1.1,0.7-1.9,1.9-1.9c1.1,0,1.9,0.7,1.9,1.9c0,1.1-0.7,1.9-1.9,1.9
		C74.3,3.7,73.6,3,73.6,1.9z M74.3,7.5h2.3v20.4h-2.3V7.5z"/>
	<path id="XMLID_27_" class="st0" d="M95.1,14.8v5.9c0,5.1-2.4,7.7-6.3,7.7c-1.8,0-3.6-0.7-4.7-2.3v8.8h-2.3V7.5h1.9l0.3,1.9
		C85,7.9,86.8,7,88.7,7C92.4,7,95.1,9.7,95.1,14.8z M92.7,14.8c0-4-1.7-5.7-4.5-5.7c-2.3,0-4.2,1.8-4.2,5.6v5.9
		c0,3.3,1.7,5.5,4.2,5.5c3,0,4.5-1.6,4.5-5.5V14.8z"/>
	<path id="XMLID_26_" class="st0" d="M110,25.8v2.1H97.8V26l9.2-16.4h-8.7V7.5h11.5v1.8l-9.2,16.4H110z"/>
</g>
</svg>
